<svg viewBox="0 0 1600 900" xmlns="http://www.w3.org/2000/svg" width="1600" height="900"><defs><linearGradient id="bg" x1="0" y1="0" x2="1" y2="1"><stop offset="0" stop-color="#1a3a2a"/><stop offset="1" stop-color="#0d2018"/></linearGradient></defs><rect width="1600" height="900" fill="url(#bg)"/><circle cx="200" cy="200" r="320" fill="none" stroke="#4E9E74" stroke-width="1" opacity="0.12"/><circle cx="1400" cy="700" r="280" fill="none" stroke="#4E9E74" stroke-width="1" opacity="0.1"/><rect x="460" y="200" width="680" height="500" rx="28" fill="#0d2a1a" stroke="#4E9E74" stroke-width="2" opacity="0.6"/><rect x="460" y="200" width="680" height="140" rx="28" fill="#163320" opacity="0.8"/><rect x="460" y="312" width="680" height="28" fill="#0d2a1a" opacity="0.8"/><circle cx="510" cy="270" r="22" fill="none" stroke="#D4A84B" stroke-width="3"/><line x1="524" y1="284" x2="540" y2="300" stroke="#D4A84B" stroke-width="3" stroke-linecap="round"/><rect x="490" y="372" width="580" height="300" rx="16" fill="#163320"/><rect x="510" y="392" width="220" height="160" rx="10" fill="#1F3557" opacity="0.8"/><circle cx="620" cy="462" r="40" fill="#0d2a1a" stroke="#D4A84B" stroke-width="2"/><path d="M600 462 Q620 435 640 462 Q660 489 680 462" fill="none" stroke="#4E9E74" stroke-width="3" stroke-linecap="round"/><rect x="510" y="392" width="220" height="30" rx="8" fill="#0d1a10" opacity="0.6"/><text x="620" y="412" font-family="system-ui" font-size="11" fill="#D4A84B" text-anchor="middle" opacity="0.8">BEFORE</text><rect x="750" y="392" width="220" height="160" rx="10" fill="#2a4a1a" opacity="0.8"/><circle cx="860" cy="452" r="38" fill="#1a3a0a" stroke="#D4A84B" stroke-width="2"/><path d="M840 452 Q860 425 880 452 Q900 479 920 452" fill="none" stroke="#D4A84B" stroke-width="3" stroke-linecap="round"/><rect x="832" y="410" width="56" height="30" rx="6" fill="#D4A84B" opacity="0.15"/><rect x="750" y="392" width="220" height="30" rx="8" fill="#0d2a0a" opacity="0.6"/><text x="860" y="412" font-family="system-ui" font-size="11" fill="#4E9E74" text-anchor="middle" opacity="0.9">AFTER</text><path d="M730 472 l18 0 M738 464 l0 16" fill="none" stroke="#D4A84B" stroke-width="3" stroke-linecap="round"/><rect x="510" y="568" width="460" height="8" rx="4" fill="#D4A84B" opacity="0.3"/><rect x="510" y="584" width="320" height="6" rx="3" fill="#4E9E74" opacity="0.2"/><rect x="0" y="860" width="1600" height="6" fill="#D4A84B" opacity="0.5"/></svg>
