<svg viewBox="0 0 1600 900" xmlns="http://www.w3.org/2000/svg" width="1600" height="900" role="img" aria-label="Roadmap">
  <defs>
    <linearGradient id="bg" x1="0" y1="0" x2="1" y2="1">
      <stop offset="0" stop-color="#C77F5C"/>
      <stop offset="1" stop-color="#A0502F"/>
    </linearGradient>
  </defs>
  <rect width="1600" height="900" fill="url(#bg)"/>
  <path d="M210 430 C 360 480, 380 525, 495 525 C 620 525, 640 470, 780 430 C 930 390, 950 525, 1065 525 C 1205 525, 1240 470, 1350 430 C 1450 405, 1480 380, 1520 350" fill="none" stroke="#D4A84B" stroke-width="8" stroke-linecap="round" stroke-dasharray="2 22"/>
  <g transform="translate(355 498) rotate(34)"><path d="M-14 -14 L12 0 L-14 14" fill="none" stroke="#D4A84B" stroke-width="9" stroke-linecap="round" stroke-linejoin="round"/></g>
  <g transform="translate(640 482) rotate(-34)"><path d="M-14 -14 L12 0 L-14 14" fill="none" stroke="#D4A84B" stroke-width="9" stroke-linecap="round" stroke-linejoin="round"/></g>
  <g transform="translate(925 498) rotate(34)"><path d="M-14 -14 L12 0 L-14 14" fill="none" stroke="#D4A84B" stroke-width="9" stroke-linecap="round" stroke-linejoin="round"/></g>
  <g transform="translate(1210 482) rotate(-34)"><path d="M-14 -14 L12 0 L-14 14" fill="none" stroke="#D4A84B" stroke-width="9" stroke-linecap="round" stroke-linejoin="round"/></g>
  <g transform="translate(470 225) scale(1.5)"><path d="M0 -10 L2.5 -2.5 L10 0 L2.5 2.5 L0 10 L-2.5 2.5 L-10 0 L-2.5 -2.5 Z" fill="#E6CFA0"/></g>
  <g transform="translate(820 180) scale(1.9)"><path d="M0 -10 L2.5 -2.5 L10 0 L2.5 2.5 L0 10 L-2.5 2.5 L-10 0 L-2.5 -2.5 Z" fill="#E6CFA0"/></g>
  <g transform="translate(1140 210) scale(1.4)"><path d="M0 -10 L2.5 -2.5 L10 0 L2.5 2.5 L0 10 L-2.5 2.5 L-10 0 L-2.5 -2.5 Z" fill="#E6CFA0"/></g>
  <g transform="translate(300 300) scale(1.1)"><path d="M0 -10 L2.5 -2.5 L10 0 L2.5 2.5 L0 10 L-2.5 2.5 L-10 0 L-2.5 -2.5 Z" fill="#E6CFA0"/></g>
  <g transform="translate(1000 650) scale(1.3)"><path d="M0 -10 L2.5 -2.5 L10 0 L2.5 2.5 L0 10 L-2.5 2.5 L-10 0 L-2.5 -2.5 Z" fill="#E6CFA0"/></g>
  <g transform="translate(640 700) scale(1.1)"><path d="M0 -10 L2.5 -2.5 L10 0 L2.5 2.5 L0 10 L-2.5 2.5 L-10 0 L-2.5 -2.5 Z" fill="#E6CFA0"/></g>
  <circle cx="600" cy="250" r="7" fill="#D4A84B"/><circle cx="950" cy="300" r="6" fill="#D4A84B"/><circle cx="330" cy="560" r="7" fill="#D4A84B"/><circle cx="1180" cy="640" r="6" fill="#D4A84B"/><circle cx="720" cy="640" r="6" fill="#D4A84B"/><circle cx="1280" cy="250" r="6" fill="#D4A84B"/>
  <circle cx="210" cy="430" r="118" fill="#FDFAF6"/><circle cx="210" cy="430" r="118" fill="none" stroke="#B8923E" stroke-width="11"/><circle cx="210" cy="430" r="101" fill="none" stroke="#E6CFA0" stroke-width="3"/>
  <g transform="translate(150 370)"><rect x="18" y="14" width="8" height="20" rx="4" fill="#1F3557"/><rect x="94" y="14" width="8" height="20" rx="4" fill="#1F3557"/><rect x="12" y="24" width="96" height="84" rx="12" fill="#1F3557"/><rect x="12" y="24" width="96" height="22" rx="12" fill="#16273f"/><g fill="#FDFAF6"><rect x="26" y="58" width="14" height="11" rx="2"/><rect x="50" y="58" width="14" height="11" rx="2"/><rect x="74" y="58" width="14" height="11" rx="2"/><rect x="26" y="78" width="14" height="11" rx="2"/><rect x="50" y="78" width="14" height="11" rx="2"/></g><path d="M74 84 l7 7 l13 -15" fill="none" stroke="#FDFAF6" stroke-width="6" stroke-linecap="round" stroke-linejoin="round"/></g>
  <circle cx="495" cy="525" r="118" fill="#FDFAF6"/><circle cx="495" cy="525" r="118" fill="none" stroke="#B8923E" stroke-width="11"/><circle cx="495" cy="525" r="101" fill="none" stroke="#E6CFA0" stroke-width="3"/>
  <g transform="translate(435 465)"><rect x="40" y="28" width="34" height="14" rx="4" fill="#1F3557"/><rect x="10" y="36" width="100" height="60" rx="12" fill="#1F3557"/><circle cx="60" cy="66" r="20" fill="#FDFAF6"/><circle cx="60" cy="66" r="11" fill="#1F3557"/><circle cx="94" cy="50" r="4" fill="#FDFAF6"/></g>
  <circle cx="780" cy="430" r="118" fill="#FDFAF6"/><circle cx="780" cy="430" r="118" fill="none" stroke="#B8923E" stroke-width="11"/><circle cx="780" cy="430" r="101" fill="none" stroke="#E6CFA0" stroke-width="3"/>
  <g transform="translate(720 370)"><path d="M14 60 L108 22 L70 104 L56 70 Z" fill="#1F3557"/><path d="M56 70 L108 22 L70 104 Z" fill="#16273f"/><path d="M14 60 L56 70 L48 92 Z" fill="#1F3557"/></g>
  <circle cx="1065" cy="525" r="118" fill="#FDFAF6"/><circle cx="1065" cy="525" r="118" fill="none" stroke="#B8923E" stroke-width="11"/><circle cx="1065" cy="525" r="101" fill="none" stroke="#E6CFA0" stroke-width="3"/>
  <g transform="translate(1005 465)"><path d="M16 40 h88 l8 14 H8 Z" fill="#1F3557"/><rect x="20" y="54" width="80" height="54" rx="4" fill="#1F3557"/><g fill="#FDFAF6"><rect x="20" y="54" width="14" height="14"/><rect x="48" y="54" width="14" height="14"/><rect x="76" y="54" width="14" height="14"/></g><rect x="50" y="76" width="20" height="32" rx="2" fill="#FDFAF6"/><rect x="30" y="76" width="14" height="14" rx="2" fill="#FDFAF6"/></g>
  <circle cx="1350" cy="430" r="118" fill="#FDFAF6"/><circle cx="1350" cy="430" r="118" fill="none" stroke="#B8923E" stroke-width="11"/><circle cx="1350" cy="430" r="101" fill="none" stroke="#E6CFA0" stroke-width="3"/>
  <g transform="translate(1290 370)"><rect x="20" y="78" width="18" height="30" rx="3" fill="#1F3557"/><rect x="48" y="60" width="18" height="48" rx="3" fill="#1F3557"/><rect x="76" y="44" width="18" height="64" rx="3" fill="#1F3557"/><path d="M22 56 L50 40 L72 50 L100 24" fill="none" stroke="#1F3557" stroke-width="6" stroke-linecap="round" stroke-linejoin="round"/><path d="M86 18 a9 9 0 0 1 14 10 l-14 14 -14-14 a9 9 0 0 1 14 -10 Z" fill="#1F3557"/></g>
  <g transform="translate(1520 350)"><ellipse cx="0" cy="18" rx="44" ry="12" fill="#16273f" opacity="0.18"/><rect x="-3" y="-150" width="7" height="168" rx="3" fill="#B8923E"/><path d="M4 -150 q40 8 64 -2 q-12 22 0 44 q-30 -10 -64 -2 Z" fill="#D4A84B" stroke="#B8923E" stroke-width="3"/><circle cx="0" cy="-150" r="7" fill="#D4A84B"/><g stroke="#E6CFA0" stroke-width="3" stroke-linecap="round"><line x1="44" y1="-118" x2="58" y2="-118"/><line x1="40" y1="-138" x2="52" y2="-148"/><line x1="40" y1="-98" x2="52" y2="-88"/></g></g>
</svg>
